<?xml version="1.0" encoding="utf-8"?>
<!-- Generator: Adobe Illustrator 24.1.0, SVG Export Plug-In . SVG Version: 6.00 Build 0)  -->
<svg version="1.1" id="Layer_1" xmlns="http://www.w3.org/2000/svg" xmlns:xlink="http://www.w3.org/1999/xlink" x="0px" y="0px"
	 viewBox="0 0 5.2 5.3" style="enable-background:new 0 0 5.2 5.3;" xml:space="preserve">
<style type="text/css">
	.st0{fill-rule:evenodd;clip-rule:evenodd;fill:#3C567D;stroke:#3B567D;stroke-width:0.25;stroke-miterlimit:10;}
	.st1{fill:none;stroke:#3B567D;stroke-width:0.4;stroke-miterlimit:10;}
</style>
<path class="st0" d="M1.5,2.1c0,0,0.1,0,0.1,0c0,0,0,0,0,0l1,1l1-1c0,0,0.1,0,0.1,0c0,0,0,0.1,0,0.1L2.7,3.3c0,0-0.1,0-0.1,0
	c0,0,0,0,0,0L1.5,2.2C1.4,2.2,1.4,2.1,1.5,2.1C1.5,2.1,1.5,2.1,1.5,2.1z"/>
<circle class="st1" cx="2.6" cy="2.7" r="2"/>
</svg>
